HIERARCHY
ROOT Hips
{
	OFFSET 0.000000 0.000000 0.000000
	CHANNELS 6 Xposition Yposition Zposition Xrotation Yrotation Zrotation
	JOINT LeftUpLeg_virtual
	{
		OFFSET 0.000000 0.000000 0.000000
		CHANNELS 3 Xrotation Yrotation Zrotation
		JOINT LeftUpLeg
		{
			OFFSET 15.427100 -6.655098 0.678600
			CHANNELS 3 Xrotation Yrotation Zrotation
			JOINT LeftLeg
			{
				OFFSET 4.081073 -39.591068 13.024000
				CHANNELS 3 Xrotation Yrotation Zrotation
				JOINT LeftFoot
				{
					OFFSET -4.081074 -37.707932 -15.979700
					CHANNELS 3 Xrotation Yrotation Zrotation
					JOINT LeftToeBase
					{
						OFFSET 5.346399 -15.068900 20.645000
						CHANNELS 3 Xrotation Yrotation Zrotation
						JOINT LeftToe_End
						{
							OFFSET 2.754700 0.931300 11.300900
							CHANNELS 3 Xrotation Yrotation Zrotation
							End Site
							{
								OFFSET 0 0 0
							}
						}
					}
				}
			}
		}
	}
	JOINT RightUpLeg_virtual
	{
		OFFSET 0.000000 0.000000 0.000000
		CHANNELS 3 Xrotation Yrotation Zrotation
		JOINT RightUpLeg
		{
			OFFSET -15.569500 -6.655098 0.678600
			CHANNELS 3 Xrotation Yrotation Zrotation
			JOINT RightLeg
			{
				OFFSET -4.081825 -39.591045 13.023800
				CHANNELS 3 Xrotation Yrotation Zrotation
				JOINT RightFoot
				{
					OFFSET 4.081824 -37.707954 -15.979600
					CHANNELS 3 Xrotation Yrotation Zrotation
					JOINT RightToeBase
					{
						OFFSET -5.346400 -15.068900 20.645000
						CHANNELS 3 Xrotation Yrotation Zrotation
						JOINT RightToe_End
						{
							OFFSET -2.754700 0.931300 11.300900
							CHANNELS 3 Xrotation Yrotation Zrotation
							End Site
							{
								OFFSET 0 0 0
							}
						}
					}
				}
			}
		}
	}
	JOINT Spine_virtual
	{
		OFFSET 0.000000 0.000000 0.000000
		CHANNELS 3 Xrotation Yrotation Zrotation
		JOINT Spine
		{
			OFFSET -0.279200 12.230698 -2.892100
			CHANNELS 3 Xrotation Yrotation Zrotation
			JOINT Spine1
			{
				OFFSET -0.232667 10.192268 -1.242267
				CHANNELS 3 Xrotation Yrotation Zrotation
				JOINT Spine1_split
				{
					OFFSET -0.232667 10.192268 -1.242267
					CHANNELS 3 Xrotation Yrotation Zrotation
					JOINT Spine2
					{
						OFFSET -0.232667 10.192268 -1.242267
						CHANNELS 3 Xrotation Yrotation Zrotation
						JOINT Neck_virtual
						{
							OFFSET 0.000000 0.000000 0.000000
							CHANNELS 3 Xrotation Yrotation Zrotation
							JOINT Neck
							{
								OFFSET -0.418800 17.814194 8.416900
								CHANNELS 3 Xrotation Yrotation Zrotation
								JOINT Head
								{
									OFFSET 0.000000 7.031097 3.806800
									CHANNELS 3 Xrotation Yrotation Zrotation
									JOINT HeadTop_End
									{
										OFFSET 0.000000 24.646606 12.978600
										CHANNELS 3 Xrotation Yrotation Zrotation
										End Site
										{
											OFFSET 0 0 0
										}
									}
								}
							}
						}
						JOINT LeftShoulder_virtual
						{
							OFFSET 0.000000 0.000000 0.000000
							CHANNELS 3 Xrotation Yrotation Zrotation
							JOINT LeftShoulder
							{
								OFFSET 8.476499 7.247704 -3.868750
								CHANNELS 3 Xrotation Yrotation Zrotation
								JOINT LeftShoulder_split
								{
									OFFSET 8.476499 7.247704 -3.868750
									CHANNELS 3 Xrotation Yrotation Zrotation
									JOINT LeftArm
									{
										OFFSET 9.308998 -2.777710 0.208600
										CHANNELS 3 Xrotation Yrotation Zrotation
										JOINT LeftForeArm
										{
											OFFSET 29.972298 0.000000 0.000000
											CHANNELS 3 Xrotation Yrotation Zrotation
											JOINT LeftHand
											{
												OFFSET 26.026505 0.000000 0.000000
												CHANNELS 3 Xrotation Yrotation Zrotation
												End Site
												{
													OFFSET 0 0 0
												}
											}
										}
									}
								}
							}
						}
						JOINT RightShoulder_virtual
						{
							OFFSET 0.000000 0.000000 0.000000
							CHANNELS 3 Xrotation Yrotation Zrotation
							JOINT RightShoulder
							{
								OFFSET -7.570500 7.247704 -3.868750
								CHANNELS 3 Xrotation Yrotation Zrotation
								JOINT RightShoulder_split
								{
									OFFSET -7.570500 7.247704 -3.868750
									CHANNELS 3 Xrotation Yrotation Zrotation
									JOINT RightArm
									{
										OFFSET -9.308998 -2.777710 0.208500
										CHANNELS 3 Xrotation Yrotation Zrotation
										JOINT RightForeArm
										{
											OFFSET -29.972300 0.000000 0.000000
											CHANNELS 3 Xrotation Yrotation Zrotation
											JOINT RightHand
											{
												OFFSET -26.026505 0.000000 0.000000
												CHANNELS 3 Xrotation Yrotation Zrotation
												End Site
												{
													OFFSET 0 0 0
												}
											}
										}
									}
								}
							}
						}
					}
				}
			}
		}
	}
}
MOTION
Frames: 9
Frame Time: 0.03333333
0.265311 87.435532 -3.501640 0.000000 0.000000 0.000000 -6.502969 -24.948647 2.274705 -13.945653 12.116656 11.019248 28.401226 9.178939 1.946511 -2.910787 19.587009 -13.869339 -1.113331 0.152509 -0.289798 0.000000 0.000000 0.000000 -5.761837 -23.977593 2.572938 -9.262451 -34.540332 -13.632936 31.934437 6.609915 -7.356447 -21.041101 -20.680476 5.185359 -5.244671 0.181074 -0.434947 0.000000 0.000000 0.000000 -6.961262 -26.696455 1.476551 5.313972 -2.643003 -1.759016 1.342713 -2.774660 0.399946 0.768576 0.766573 0.008366 0.000000 0.000000 0.000000 0.953614 -2.425819 0.282116 2.008880 5.371909 -0.289317 0.064542 -19.094120 -3.526563 0.000000 0.000000 0.000000 1.373256 -2.585730 0.077099 -0.062151 -16.062252 -18.567492 -1.926182 -1.555647 -1.850379 16.339419 7.198277 -35.535681 171.365785 -82.252676 170.385899 0.000000 0.000000 0.000000 0.909100 -2.476872 0.310521 0.854866 15.245081 11.459638 2.709477 2.294903 0.019718 3.380496 28.086324 43.226293 -172.054091 83.808525 171.644061 0.000000 0.000000 0.000000 
-0.477180 87.590012 -3.212303 0.000000 0.000000 0.000000 -6.631487 -26.569695 1.915624 -13.319254 11.957005 11.534175 28.724726 9.681491 1.933875 -3.104002 20.392884 -13.221280 -1.351859 0.194293 -0.672986 0.000000 0.000000 0.000000 -5.911960 -25.545550 2.209440 -8.130492 -34.337157 -12.671120 30.955708 6.989208 -7.291434 -21.218174 -20.074221 5.045177 -5.240706 0.167002 -0.405054 0.000000 0.000000 0.000000 -7.107667 -28.120615 1.170311 5.330169 -2.563833 -1.570131 1.325946 -2.652227 0.380117 0.722878 0.745645 0.000050 0.000000 0.000000 0.000000 0.938176 -2.313875 0.256717 1.980564 5.414119 -0.270634 0.115938 -19.095928 -3.281289 0.000000 0.000000 0.000000 1.337175 -2.468722 0.060111 -0.073796 -16.086695 -18.489389 -1.870502 -1.537791 -1.964040 15.563814 6.892073 -35.708123 171.456067 -82.599650 170.475238 0.000000 0.000000 0.000000 0.888261 -2.365721 0.267044 0.832340 15.293956 11.378208 2.744704 2.300580 0.042562 3.913273 27.398807 42.483391 -173.005987 83.020280 172.594113 0.000000 0.000000 0.000000 
-1.146581 87.741478 -2.910889 0.000000 0.000000 0.000000 -6.787156 -28.313053 1.549066 -13.005710 11.851121 11.934162 29.133134 10.003077 1.865285 -3.368404 20.767255 -12.349304 -1.661950 0.259597 -1.050512 0.000000 0.000000 0.000000 -6.116228 -27.119283 1.839663 -6.994673 -33.983186 -11.830651 30.098557 7.136889 -7.163615 -21.410307 -19.390762 4.905574 -5.078556 0.135648 -0.388794 0.000000 0.000000 0.000000 -7.238080 -29.490636 0.871421 5.344611 -2.417253 -1.405166 1.298873 -2.513309 0.351772 0.681255 0.670955 -0.008983 0.000000 0.000000 0.000000 0.937634 -2.179329 0.225177 1.948506 5.454688 -0.288043 0.141491 -18.941347 -3.072021 0.000000 0.000000 0.000000 1.295028 -2.330375 0.032473 -0.089129 -16.123613 -18.407181 -1.809679 -1.526761 -2.066414 14.819755 6.546532 -35.863104 171.686599 -82.925231 170.704295 0.000000 0.000000 0.000000 0.862395 -2.233840 0.223926 0.819841 15.371081 11.322501 2.721895 2.315441 0.042562 4.475024 26.552396 41.834028 -173.812701 82.189825 173.408845 0.000000 0.000000 0.000000 
-1.741108 87.901649 -2.590931 0.000000 0.000000 0.000000 -6.961841 -30.132469 1.175113 -13.136296 11.782475 12.187801 29.556670 10.054812 1.750302 -3.492054 20.507344 -11.421356 -2.004159 0.328754 -1.369412 0.000000 0.000000 0.000000 -6.334104 -28.684353 1.472942 -5.961857 -33.521093 -11.137603 29.356652 7.058480 -6.997068 -21.534308 -18.652606 4.826272 -4.887278 0.099088 -0.391434 0.000000 0.000000 0.000000 -7.351062 -30.823401 0.584283 5.364034 -2.206301 -1.263673 1.267036 -2.366605 0.316736 0.658018 0.559571 -0.018930 0.000000 0.000000 0.000000 0.954827 -2.030401 0.187939 1.903985 5.489616 -0.326744 0.127477 -18.643339 -2.895961 0.000000 0.000000 0.000000 1.250670 -2.179927 -0.003792 -0.104350 -16.158967 -18.330775 -1.746687 -1.510362 -2.147502 14.136819 6.179401 -35.991713 171.988234 -83.218000 171.006299 0.000000 0.000000 0.000000 0.836918 -2.090960 0.183043 0.815925 15.453969 11.288990 2.661988 2.327186 0.019497 5.035301 25.659472 41.270868 -174.515322 81.325334 174.129116 0.000000 0.000000 0.000000 
-2.257982 88.093292 -2.283371 0.000000 0.000000 0.000000 -7.107369 -31.913943 0.824535 -13.748824 11.746327 12.223763 29.901516 9.806302 1.615961 -3.332867 19.482845 -10.530814 -2.337497 0.387044 -1.595020 0.000000 0.000000 0.000000 -6.528072 -30.238774 1.129651 -5.041621 -32.954522 -10.565103 28.666598 6.785698 -6.820391 -21.542888 -17.859352 4.812051 -4.689155 0.069688 -0.398233 0.000000 0.000000 0.000000 -7.416550 -32.131423 0.310914 5.381540 -1.932921 -1.142042 1.236097 -2.214975 0.279788 0.643582 0.443126 -0.022134 0.000000 0.000000 0.000000 0.986159 -1.877263 0.146164 1.849037 5.520919 -0.369529 0.073413 -18.224229 -2.739090 0.000000 0.000000 0.000000 1.214841 -2.024749 -0.044143 -0.117117 -16.172920 -18.269108 -1.697806 -1.491085 -2.220530 13.542502 5.804594 -36.085091 172.291044 -83.468231 171.316321 0.000000 0.000000 0.000000 0.812450 -1.946834 0.144997 0.816852 15.521070 11.279692 2.586635 2.322501 -0.022565 5.560031 24.820049 40.792629 -175.119889 80.474300 174.766905 0.000000 0.000000 0.000000 
-2.716741 88.334129 -1.980480 0.000000 0.000000 0.000000 -7.206018 -33.598530 0.513987 -14.775823 11.751481 12.004559 30.032659 9.272748 1.489938 -2.836701 17.671690 -9.744478 -2.631195 0.418418 -1.685412 0.000000 0.000000 0.000000 -6.658535 -31.758016 0.835391 -4.209778 -32.272876 -10.078710 27.921639 6.324866 -6.671021 -21.435907 -17.020848 4.820228 -4.504138 0.048184 -0.387702 0.000000 0.000000 0.000000 -7.459776 -33.420594 0.046942 5.399532 -1.606115 -1.037053 1.209764 -2.062773 0.243862 0.633557 0.335329 -0.015321 0.000000 0.000000 0.000000 1.026514 -1.725047 0.100667 1.780860 5.539877 -0.399542 -0.009928 -17.707865 -2.586117 0.000000 0.000000 0.000000 1.189771 -1.869742 -0.084687 -0.126841 -16.156864 -18.235372 -1.646012 -1.471691 -2.275403 13.047435 5.425405 -36.141997 172.483587 -83.666648 171.526472 0.000000 0.000000 0.000000 0.789350 -1.806222 0.111055 0.822803 15.556427 11.291564 2.504463 2.307998 -0.079868 6.012072 24.102037 40.389781 -175.618288 79.706382 175.313853 0.000000 0.000000 0.000000 
-3.139007 88.624062 -1.688572 0.000000 0.000000 0.000000 -7.220627 -35.123394 0.284489 -16.025459 11.799294 11.508446 29.800054 8.527589 1.403267 -2.026612 15.142548 -9.042773 -2.922658 0.408838 -1.621806 0.000000 0.000000 0.000000 -6.704731 -33.208885 0.618263 -3.401808 -31.471114 -9.638614 27.081762 5.683611 -6.565867 -21.168199 -16.172937 4.837519 -4.394499 0.033151 -0.352643 0.000000 0.000000 0.000000 -7.464359 -34.685046 -0.183355 5.412606 -1.241531 -0.960712 1.194590 -1.907896 0.207488 0.629333 0.240113 0.013073 0.000000 0.000000 0.000000 1.067540 -1.573249 0.053086 1.693955 5.536868 -0.404696 -0.100219 -17.129317 -2.421345 0.000000 0.000000 0.000000 1.176147 -1.713512 -0.124860 -0.135086 -16.112929 -18.240020 -1.591380 -1.457683 -2.320151 12.642005 5.040015 -36.168392 172.501550 -83.821489 171.577767 0.000000 0.000000 0.000000 0.773304 -1.665442 0.078452 0.835099 15.559282 11.321154 2.443149 2.264523 -0.136655 6.360856 23.534300 40.060272 -176.016297 79.093891 175.770902 0.000000 0.000000 0.000000 
-3.531907 88.950989 -1.441429 0.000000 0.000000 0.000000 -7.143082 -36.477605 0.156000 -17.311893 11.874115 10.781364 29.115078 7.598977 1.354643 -0.895376 12.078919 -8.519025 -3.247026 0.358831 -1.377315 0.000000 0.000000 0.000000 -6.687130 -34.560255 0.490392 -2.565774 -30.558659 -9.250902 26.133581 4.897264 -6.505553 -20.703603 -15.328527 4.879241 -4.383822 0.024296 -0.300448 0.000000 0.000000 0.000000 -7.447712 -35.890267 -0.373856 5.422862 -0.858162 -0.921470 1.191370 -1.750471 0.170132 0.611811 0.159129 0.041716 0.000000 0.000000 0.000000 1.100941 -1.419867 0.004686 1.589434 5.514807 -0.384529 -0.163599 -16.512824 -2.233540 0.000000 0.000000 0.000000 1.171393 -1.555027 -0.165185 -0.144541 -16.050099 -18.279748 -1.544995 -1.444169 -2.364337 12.314375 4.633855 -36.175141 172.308734 -83.952464 171.434784 0.000000 0.000000 0.000000 0.760289 -1.520516 0.043858 0.853251 15.535527 11.359878 2.391596 2.195174 -0.194760 6.577547 23.108613 39.811284 -176.306334 78.685056 176.124528 0.000000 0.000000 0.000000 
-3.891861 89.301003 -1.211967 0.000000 0.000000 0.000000 -6.997135 -37.665140 0.126579 -18.418041 11.935476 9.911300 27.987651 6.588727 1.325248 0.478598 8.767941 -8.126433 -3.545511 0.269280 -1.009644 0.000000 0.000000 0.000000 -6.627993 -35.772002 0.446537 -1.690398 -29.557558 -8.919522 25.102098 4.008287 -6.492122 -20.082209 -14.500748 4.952410 -4.379287 0.023807 -0.242205 0.000000 0.000000 0.000000 -7.421742 -36.983255 -0.508898 5.435313 -0.478241 -0.934449 1.201493 -1.592419 0.129822 0.603358 0.097918 0.073736 0.000000 0.000000 0.000000 1.121790 -1.262988 -0.043471 1.464988 5.473092 -0.349890 -0.165446 -15.886176 -2.018104 0.000000 0.000000 0.000000 1.169001 -1.393421 -0.205482 -0.155485 -15.984654 -18.342733 -1.509775 -1.438062 -2.402973 12.047813 4.200576 -36.169209 171.922213 -84.084833 171.113096 0.000000 0.000000 0.000000 0.755164 -1.367181 0.005799 0.876252 15.493007 11.391093 2.347860 2.105061 -0.240103 6.664666 22.796400 39.638757 -176.510011 78.476237 176.386384 0.000000 0.000000 0.000000 
